<?xml version="1.0" standalone="no"?>
<svg xmlns:xlink="http://www.w3.org/1999/xlink" id="wave" style="transform:rotate(0deg); transition: 0.3s" viewBox="0 0 1440 370" version="1.1" xmlns="http://www.w3.org/2000/svg"><defs><linearGradient id="sw-gradient-0" x1="0" x2="0" y1="1" y2="0"><stop stop-color="rgba(255, 0, 0, 1)" offset="0%"/><stop stop-color="rgba(255, 0, 0, 1)" offset="100%"/></linearGradient></defs><path style="transform:translate(0, 0px); opacity:1" fill="url(#sw-gradient-0)" d="M0,37L48,86.3C96,136,192,234,288,265.2C384,296,480,259,576,209.7C672,160,768,99,864,61.7C960,25,1056,12,1152,6.2C1248,0,1344,0,1440,30.8C1536,62,1632,123,1728,178.8C1824,234,1920,284,2016,296C2112,308,2208,284,2304,234.3C2400,185,2496,111,2592,80.2C2688,49,2784,62,2880,111C2976,160,3072,247,3168,277.5C3264,308,3360,284,3456,234.3C3552,185,3648,111,3744,98.7C3840,86,3936,136,4032,172.7C4128,210,4224,234,4320,234.3C4416,234,4512,210,4608,209.7C4704,210,4800,234,4896,215.8C4992,197,5088,136,5184,129.5C5280,123,5376,173,5472,209.7C5568,247,5664,271,5760,246.7C5856,222,5952,148,6048,154.2C6144,160,6240,247,6336,265.2C6432,284,6528,234,6624,185C6720,136,6816,86,6864,61.7L6912,37L6912,370L6864,370C6816,370,6720,370,6624,370C6528,370,6432,370,6336,370C6240,370,6144,370,6048,370C5952,370,5856,370,5760,370C5664,370,5568,370,5472,370C5376,370,5280,370,5184,370C5088,370,4992,370,4896,370C4800,370,4704,370,4608,370C4512,370,4416,370,4320,370C4224,370,4128,370,4032,370C3936,370,3840,370,3744,370C3648,370,3552,370,3456,370C3360,370,3264,370,3168,370C3072,370,2976,370,2880,370C2784,370,2688,370,2592,370C2496,370,2400,370,2304,370C2208,370,2112,370,2016,370C1920,370,1824,370,1728,370C1632,370,1536,370,1440,370C1344,370,1248,370,1152,370C1056,370,960,370,864,370C768,370,672,370,576,370C480,370,384,370,288,370C192,370,96,370,48,370L0,370Z"/></svg>