<?xml version="1.0" standalone="no"?>
<svg xmlns:xlink="http://www.w3.org/1999/xlink" id="wave" style="transform:rotate(0deg); transition: 0.3s" viewBox="0 0 1440 370" version="1.1" xmlns="http://www.w3.org/2000/svg"><defs><linearGradient id="sw-gradient-0" x1="0" x2="0" y1="1" y2="0"><stop stop-color="rgba(65, 105, 225, 1)" offset="0%"/><stop stop-color="rgba(65, 105, 225, 1)" offset="100%"/></linearGradient></defs><path style="transform:translate(0, 0px); opacity:1" fill="url(#sw-gradient-0)" d="M0,259L48,215.8C96,173,192,86,288,43.2C384,0,480,0,576,43.2C672,86,768,173,864,172.7C960,173,1056,86,1152,98.7C1248,111,1344,222,1440,277.5C1536,333,1632,333,1728,277.5C1824,222,1920,111,2016,67.8C2112,25,2208,49,2304,49.3C2400,49,2496,25,2592,43.2C2688,62,2784,123,2880,141.8C2976,160,3072,136,3168,111C3264,86,3360,62,3456,61.7C3552,62,3648,86,3744,92.5C3840,99,3936,86,4032,67.8C4128,49,4224,25,4320,18.5C4416,12,4512,25,4608,49.3C4704,74,4800,111,4896,117.2C4992,123,5088,99,5184,129.5C5280,160,5376,247,5472,277.5C5568,308,5664,284,5760,265.2C5856,247,5952,234,6048,246.7C6144,259,6240,296,6336,296C6432,296,6528,259,6624,222C6720,185,6816,148,6864,129.5L6912,111L6912,370L6864,370C6816,370,6720,370,6624,370C6528,370,6432,370,6336,370C6240,370,6144,370,6048,370C5952,370,5856,370,5760,370C5664,370,5568,370,5472,370C5376,370,5280,370,5184,370C5088,370,4992,370,4896,370C4800,370,4704,370,4608,370C4512,370,4416,370,4320,370C4224,370,4128,370,4032,370C3936,370,3840,370,3744,370C3648,370,3552,370,3456,370C3360,370,3264,370,3168,370C3072,370,2976,370,2880,370C2784,370,2688,370,2592,370C2496,370,2400,370,2304,370C2208,370,2112,370,2016,370C1920,370,1824,370,1728,370C1632,370,1536,370,1440,370C1344,370,1248,370,1152,370C1056,370,960,370,864,370C768,370,672,370,576,370C480,370,384,370,288,370C192,370,96,370,48,370L0,370Z"/></svg>