<?xml version="1.0" standalone="no"?>
<svg xmlns:xlink="http://www.w3.org/1999/xlink" id="wave" style="transform:rotate(0deg); transition: 0.3s" viewBox="0 0 1440 370" version="1.1" xmlns="http://www.w3.org/2000/svg"><defs><linearGradient id="sw-gradient-0" x1="0" x2="0" y1="1" y2="0"><stop stop-color="rgba(64, 224, 208, 1)" offset="0%"/><stop stop-color="rgba(64, 224, 208, 1)" offset="100%"/></linearGradient></defs><path style="transform:translate(0, 0px); opacity:1" fill="url(#sw-gradient-0)" d="M0,74L48,92.5C96,111,192,148,288,135.7C384,123,480,62,576,49.3C672,37,768,74,864,104.8C960,136,1056,160,1152,197.3C1248,234,1344,284,1440,283.7C1536,284,1632,234,1728,197.3C1824,160,1920,136,2016,148C2112,160,2208,210,2304,234.3C2400,259,2496,259,2592,228.2C2688,197,2784,136,2880,148C2976,160,3072,247,3168,240.5C3264,234,3360,136,3456,135.7C3552,136,3648,234,3744,277.5C3840,321,3936,308,4032,277.5C4128,247,4224,197,4320,191.2C4416,185,4512,222,4608,215.8C4704,210,4800,160,4896,148C4992,136,5088,160,5184,172.7C5280,185,5376,185,5472,203.5C5568,222,5664,259,5760,265.2C5856,271,5952,247,6048,222C6144,197,6240,173,6336,178.8C6432,185,6528,222,6624,215.8C6720,210,6816,160,6864,135.7L6912,111L6912,370L6864,370C6816,370,6720,370,6624,370C6528,370,6432,370,6336,370C6240,370,6144,370,6048,370C5952,370,5856,370,5760,370C5664,370,5568,370,5472,370C5376,370,5280,370,5184,370C5088,370,4992,370,4896,370C4800,370,4704,370,4608,370C4512,370,4416,370,4320,370C4224,370,4128,370,4032,370C3936,370,3840,370,3744,370C3648,370,3552,370,3456,370C3360,370,3264,370,3168,370C3072,370,2976,370,2880,370C2784,370,2688,370,2592,370C2496,370,2400,370,2304,370C2208,370,2112,370,2016,370C1920,370,1824,370,1728,370C1632,370,1536,370,1440,370C1344,370,1248,370,1152,370C1056,370,960,370,864,370C768,370,672,370,576,370C480,370,384,370,288,370C192,370,96,370,48,370L0,370Z"/></svg>